<svg xmlns="http://www.w3.org/2000/svg"
    viewBox="0 0 100 100">
    <g id="settings">
        <path d="M94.85,38.89H85.5A3.59,3.59,0,0,1,83,32.76l6.61-6.61a5.15,5.15,0,0,0,0-7.28l-8.43-8.43a5.27,5.27,0,0,0-7.28,0L67.24,17a3.59,3.59,0,0,1-6.13-2.54V5.15A5.15,5.15,0,0,0,56,0H44a5.15,5.15,0,0,0-5.15,5.15V14.5A3.59,3.59,0,0,1,32.76,17l-6.61-6.61a5.27,5.27,0,0,0-7.28,0l-8.43,8.43a5.15,5.15,0,0,0,0,7.28L17,32.76a3.59,3.59,0,0,1-2.54,6.13H5.15A5.15,5.15,0,0,0,0,44V56a5.15,5.15,0,0,0,5.15,5.15H14.5A3.59,3.59,0,0,1,17,67.24l-6.61,6.61a5.15,5.15,0,0,0,0,7.28l8.43,8.43a5.27,5.27,0,0,0,7.28,0L32.76,83a3.59,3.59,0,0,1,6.13,2.54v9.36A5.15,5.15,0,0,0,44,100H56a5.15,5.15,0,0,0,5.15-5.15V85.5A3.59,3.59,0,0,1,67.24,83l6.61,6.61a5.27,5.27,0,0,0,7.28,0l8.43-8.43a5.15,5.15,0,0,0,0-7.28L83,67.24a3.59,3.59,0,0,1,2.54-6.13h9.36A5.15,5.15,0,0,0,100,56V44A5.15,5.15,0,0,0,94.85,38.89ZM96.3,56a1.45,1.45,0,0,1-1.44,1.44H85.5a7.3,7.3,0,0,0-5.16,12.46L87,76.48a1.45,1.45,0,0,1,0,2L78.52,87a1.45,1.45,0,0,1-2,0l-6.61-6.61A7.3,7.3,0,0,0,57.41,85.5v9.36A1.45,1.45,0,0,1,56,96.3H44a1.45,1.45,0,0,1-1.44-1.44V85.5a7.18,7.18,0,0,0-4.5-6.74,7.38,7.38,0,0,0-2.84-.58,7.19,7.19,0,0,0-5.11,2.16l-6.61,6.61a1.45,1.45,0,0,1-2,0L13,78.52a1.45,1.45,0,0,1,0-2l6.61-6.61A7.29,7.29,0,0,0,14.5,57.41H5.15A1.45,1.45,0,0,1,3.7,56V44a1.45,1.45,0,0,1,1.44-1.44H14.5a7.3,7.3,0,0,0,5.16-12.46L13,23.52a1.45,1.45,0,0,1,0-2L21.48,13a1.45,1.45,0,0,1,2,0l6.61,6.61A7.3,7.3,0,0,0,42.59,14.5V5.15A1.45,1.45,0,0,1,44,3.7H56a1.45,1.45,0,0,1,1.45,1.44V14.5a7.3,7.3,0,0,0,12.46,5.16L76.48,13a1.45,1.45,0,0,1,2,0L87,21.48a1.45,1.45,0,0,1,0,2l-6.61,6.61A7.3,7.3,0,0,0,85.5,42.59h9.36A1.44,1.44,0,0,1,96.3,44Z"/>
        <path d="M50,33.33A16.67,16.67,0,1,0,66.67,50,16.68,16.68,0,0,0,50,33.33ZM50,63A13,13,0,1,1,63,50,13,13,0,0,1,50,63Z"/>
    </g>
</svg>