<svg xmlns="http://www.w3.org/2000/svg"
    viewBox="0 0 100 100">
    <g id="tag">
        <path d="M47.71,4.94A10.8,10.8,0,0,0,39.6,1.41L18.23,1.2a16.33,16.33,0,0,0-12.05,5,16.33,16.33,0,0,0-5,12.05l.2,21.39a12.54,12.54,0,0,0,3.53,8.11L56,98.8,98.8,56ZM23.21,34.62A11.41,11.41,0,1,1,34.62,23.21,11.41,11.41,0,0,1,23.21,34.62Z"/>
        <path d="M23.21,8.16A15.05,15.05,0,1,0,38.26,23.21,15,15,0,0,0,23.21,8.16Zm0,26.47A11.41,11.41,0,1,1,34.62,23.21,11.41,11.41,0,0,1,23.21,34.62Z"/>
    </g>
</svg>