<svg xmlns="http://www.w3.org/2000/svg"
    viewBox="0 0 100 100">
    <g id="import">
        <path d="M77.64,34.83H63v8.68H77.64c4.35,0,7.72,2.22,7.72,4.13V86.12c0,1.91-3.37,4.13-7.72,4.13H22.36c-4.35,0-7.72-2.22-7.72-4.13V47.65c0-1.91,3.37-4.13,7.72-4.13H37V34.84H22.36C13.17,34.84,6,40.46,6,47.65V86.12c0,7.18,7.2,12.81,16.4,12.81H77.64c9.19,0,16.4-5.63,16.4-12.81V47.65C94,40.46,86.83,34.83,77.64,34.83Z"/>
        <path d="M37.16,22.7a4.32,4.32,0,0,0,3.07-1.27L45.66,16V60.13a4.34,4.34,0,1,0,8.68,0V15.7l5.72,5.72a4.34,4.34,0,1,0,6.13-6.13l-13-13a4.32,4.32,0,0,0-3.07-1.27h-.07A4.32,4.32,0,0,0,47,2.34l-13,13a4.34,4.34,0,0,0,3.07,7.41Z"/>
    </g>
</svg>