<svg xmlns="http://www.w3.org/2000/svg"
    viewBox="0 0 50 50">
    <g id="layout">
        <path d="M44.55,0a5.45,5.45,0,0,0-4.79,8.05L30.82,17a7.22,7.22,0,0,0-8.9,0l-7-7a3.59,3.59,0,0,0,.52-1.84,3.64,3.64,0,1,0-3.64,3.64,3.59,3.59,0,0,0,1.84-.52l7,7a7.23,7.23,0,0,0,0,8.9L9.11,38.69a5.4,5.4,0,1,0,1.14,1.43L21.91,28.46a7.23,7.23,0,0,0,3.54,1.47v9.24a5.45,5.45,0,1,0,1.82,0V29.94a7.23,7.23,0,0,0,3.54-1.47l7,7a3.59,3.59,0,0,0-.52,1.84,3.64,3.64,0,1,0,3.64-3.64,3.59,3.59,0,0,0-1.84.52l-7-7a7.23,7.23,0,0,0,0-8.9l8.79-8.79A5.45,5.45,0,1,0,44.55,0Z"/>
    </g>
</svg>